:SAMPLES-PER-SECOND 30
:FULLY-SPECIFIED
:DEGREES
581
root  -2.79904 41.0483 -0.483875 0.68219 -84.4097 0.597412
RightUpLeg  3.45008 -1.3646 -0.112601
RightLeg  -7.29299 -28.5344 4.72233
RightFoot  2.14606 -0.0670084 0.777177
RightToes  -3.10678e-008 1.75238e-005 3.56266e-009
Spine  11.2169 -2.10124 -7.6523
Spine1  -13.0002 -3.18331 10.2863
HEad  0.388993 -5.91168 0.189811
LeftShoulder1  0.641391 0.861579 -17.6159
LeftArm  -11.5768 -7.98049 -58.196
LeftForeArm  177.723 -69.0239 -155.624
LeftHand  -0.891913 -6.83964 8.79603
RightShoulder  0.774173 -0.449273 18.9955
RightArm  -4.58221 -24.8586 47.7579
RightForeArm  49.0759 76.0371 44.6233
RightHand  -0.40107 8.24612 -3.77937
LeftUpLeg  1.12566 0.822575 2.53649
LeftLeg  -4.9745 13.2617 -1.62835
LeftFoot  3.02852 0.355919 -3.06868
LeftToes  4.7643e-008 1.47522e-008 1.32869e-009
582
root  -2.8067 41.0476 -0.498423 0.180969 -84.0706 1.00665
RightUpLeg  3.54461 -1.45255 -0.156367
RightLeg  -7.18706 -28.761 4.72782
RightFoot  2.01552 -0.0700363 0.834951
RightToes  -3.10678e-008 1.75238e-005 3.56266e-009
Spine  11.35 -2.16978 -8.0182
Spine1  -13.2364 -3.28691 10.7598
HEad  2.0473 -6.14335 -0.190763
LeftShoulder1  0.632571 0.884835 -17.476
LeftArm  -14.2943 -11.1778 -57.769
LeftForeArm  176.209 -69.049 -155.407
LeftHand  -0.846868 -6.6538 8.49955
RightShoulder  0.773767 -0.495552 19.4099
RightArm  -3.9377 -27.2542 48.1672
RightForeArm  43.0038 73.8194 36.6903
RightHand  -0.274874 8.09267 -2.74275
LeftUpLeg  1.18245 0.790558 2.4996
LeftLeg  -4.9497 12.9703 -1.57881
LeftFoot  3.04224 0.358316 -3.12181
LeftToes  4.7643e-008 1.47522e-008 1.32869e-009
583
root  -2.83275 41.0459 -0.508367 0.0588379 -84.0453 1.13544
RightUpLeg  3.5298 -1.44906 -0.140921
RightLeg  -7.07638 -28.8186 4.66444
RightFoot  1.94904 -0.0706533 0.854366
RightToes  -3.10678e-008 1.75238e-005 3.56266e-009
Spine  11.2158 -2.0855 -8.42865
Spine1  -13.3294 -3.24959 11.4338
HEad  3.84786 -6.51488 -0.739795
LeftShoulder1  0.550422 1.19602 -17.1576
LeftArm  -16.3486 -13.6697 -57.8642
LeftForeArm  176.241 -69.1337 -155.307
LeftHand  -0.834343 -5.95204 8.84899
RightShoulder  0.750587 -0.608596 19.6363
RightArm  -3.08825 -29.3869 48.3877
RightForeArm  39.2932 71.8299 31.5788
RightHand  -0.328222 7.5975 -3.29128
LeftUpLeg  1.24181 0.796004 2.51032
LeftLeg  -4.99275 12.9103 -1.58722
LeftFoot  2.98651 0.360664 -3.17488
LeftToes  4.7643e-008 1.47522e-008 1.32869e-009
584
root  -2.88235 41.0443 -0.505414 0.835571 -83.9857 0.176208
RightUpLeg  3.9433 -1.42622 -0.0339027
RightLeg  -7.38458 -28.8895 4.82816
RightFoot  1.96484 -0.0669388 0.805616
RightToes  -3.10678e-008 1.75238e-005 3.56266e-009
Spine  10.8897 -2.10294 -8.44074
Spine1  -12.9905 -3.29921 11.7066
HEad  5.66917 -6.60545 -1.32757
LeftShoulder1  0.517783 1.32301 -17.0251
LeftArm  -18.1576 -14.6756 -57.2251
LeftForeArm  176.547 -68.9632 -155.553
LeftHand  -0.776266 -6.13449 8.13899
RightShoulder  0.764936 -0.560673 19.7071
RightArm  -2.63683 -32.0992 48.647
RightForeArm  37.8576 71.2765 30.6085
RightHand  -0.338443 7.77187 -3.34961
LeftUpLeg  1.46043 0.923803 2.63105
LeftLeg  -4.89419 12.7084 -1.56122
LeftFoot  2.85283 0.356025 -3.11767
LeftToes  4.7643e-008 1.47522e-008 1.32869e-009
585
root  -2.9311 41.0435 -0.499974 0.905212 -84.1337 0.0476074
RightUpLeg  4.07608 -1.43797 -0.0272793
RightLeg  -7.38764 -28.7294 4.81901
RightFoot  1.92323 -0.0668534 0.812256
RightToes  -3.10678e-008 1.75238e-005 3.56266e-009
Spine  10.3314 -2.15597 -8.56676
Spine1  -12.4666 -3.38983 11.9122
HEad  6.35463 -6.41295 -1.27573
LeftShoulder1  0.413898 1.74011 -16.7357
LeftArm  -19.0866 -14.5373 -56.4505
LeftForeArm  176.468 -68.8665 -155.659
LeftHand  -0.828199 -6.10598 8.68522
RightShoulder  0.750423 -0.593673 19.4768
RightArm  -2.16985 -33.5266 49.5143
RightForeArm  36.8187 70.4754 29.0267
RightHand  -0.312143 7.97242 -3.07977
LeftUpLeg  1.58018 1.02437 2.68466
LeftLeg  -4.79303 12.7147 -1.5986
LeftFoot  2.73277 0.357218 -3.14754
LeftToes  4.7643e-008 1.47522e-008 1.32869e-009
586
root  -2.97371 41.0431 -0.492209 0.73877 -84.1084 0.0584106
RightUpLeg  4.285 -1.51783 -0.0627649
RightLeg  -7.30228 -28.6795 4.80835
RightFoot  1.8276 -0.0701765 0.87086
RightToes  -3.10678e-008 1.75238e-005 3.56266e-009
Spine  10.1099 -2.27003 -8.59962
Spine1  -12.2225 -3.51933 11.9645
HEad  7.14183 -5.88589 -1.21673
LeftShoulder1  0.38038 1.87957 -16.677
LeftArm  -19.8278 -14.0546 -55.8539
LeftForeArm  177.196 -68.5796 -156.088
LeftHand  -0.818939 -6.73566 8.16724
RightShoulder  0.647171 -0.945608 18.9872
RightArm  -1.27505 -34.6146 50.6028
RightForeArm  36.5827 70.1787 28.4746
RightHand  -0.387161 7.76062 -3.77861
LeftUpLeg  1.73987 1.09315 2.7
LeftLeg  -4.62704 12.5986 -1.58835
LeftFoot  2.59508 0.353441 -3.09416
LeftToes  4.7643e-008 1.47522e-008 1.32869e-009
587
root  -2.99412 41.043 -0.484198 0.247925 -84.196 0.405029
RightUpLeg  4.35631 -1.594 -0.123088
RightLeg  -7.02457 -28.5252 4.6633
RightFoot  1.70447 -0.068633 0.853012
RightToes  -3.10678e-008 1.75238e-005 3.56266e-009
Spine  10.251 -2.36287 -8.41652
Spine1  -12.5234 -3.55348 11.6219
HEad  8.07029 -6.08686 -0.885586
LeftShoulder1  0.370264 1.91921 -16.6185
LeftArm  -20.0932 -13.0004 -55.473
LeftForeArm  177.342 -68.406 -156.306
LeftHand  -0.84867 -6.69633 8.47929
RightShoulder  0.62029 -1.03171 18.7667
RightArm  -1.06476 -35.2712 51.84
RightForeArm  35.9645 69.6076 27.4715
RightHand  -0.333228 7.90932 -3.27343
LeftUpLeg  1.9536 1.15615 2.68601
LeftLeg  -4.64306 12.6085 -1.65674
LeftFoot  2.54902 0.344947 -2.95931
LeftToes  4.7643e-008 1.47522e-008 1.32869e-009
588
root  -3.0205 41.043 -0.473494 0.172607 -84.4663 0.384705
RightUpLeg  4.45228 -1.56811 -0.115475
RightLeg  -6.94025 -28.2983 4.55249
RightFoot  1.66605 -0.0717233 0.906154
RightToes  -3.10678e-008 1.75238e-005 3.56266e-009
Spine  10.0336 -2.35314 -8.20233
Spine1  -12.5397 -3.48385 11.1755
HEad  9.1953 -7.24511 -0.341694
LeftShoulder1  0.364954 1.93653 -16.5321
LeftArm  -20.0672 -11.9332 -55.845
LeftForeArm  177.029 -68.5688 -156.081
LeftHand  -0.837978 -6.48621 8.51418
RightShoulder  0.623998 -1.01182 18.7094
RightArm  -1.23306 -35.8507 52.933
RightForeArm  35.3643 69.2055 26.8546
RightHand  -0.258981 7.97586 -2.61855
LeftUpLeg  2.14653 1.18906 2.68737
LeftLeg  -4.65375 12.8472 -1.67915
LeftFoot  2.49391 0.349034 -2.99772
LeftToes  4.7643e-008 1.47522e-008 1.32869e-009
589
root  -3.05537 41.0431 -0.46963 0.592468 -84.6999 -0.0745239
RightUpLeg  4.58633 -1.49944 -0.049984
RightLeg  -7.07173 -28.1378 4.55965
RightFoot  1.71056 -0.0670455 0.837823
RightToes  -3.10678e-008 1.75238e-005 3.56266e-009
Spine  9.53611 -2.32067 -8.31318
Spine1  -12.0692 -3.47796 11.2598
HEad  10.2079 -7.07858 -0.102991
LeftShoulder1  0.370465 1.92797 -16.7716
LeftArm  -19.9705 -10.5124 -56.2569
LeftForeArm  176.94 -68.5421 -156.101
LeftHand  -0.865695 -6.52894 8.75471
RightShoulder  0.667509 -0.846447 18.7765
RightArm  -1.32553 -35.6056 53.482
RightForeArm  34.3685 68.3641 25.578
RightHand  -0.334781 7.79802 -3.30989
LeftUpLeg  2.2837 1.24331 2.74589
LeftLeg  -4.65805 12.9761 -1.68475
LeftFoot  2.41592 0.350055 -3.00289
LeftToes  4.7643e-008 1.47522e-008 1.32869e-009
590
root  -3.09254 41.0436 -0.461138 1.7561 -84.5474 -1.40662
RightUpLeg  5.00167 -1.499 0.0509018
RightLeg  -7.46384 -28.2761 4.81295
RightFoot  1.79166 -0.0648011 0.806343
RightToes  -3.10678e-008 1.75238e-005 3.56266e-009
Spine  9.43032 -2.451 -8.27638
Spine1  -11.9148 -3.61599 11.2551
HEad  11.4961 -6.94006 0.177117
LeftShoulder1  0.400695 1.81268 -16.9754
LeftArm  -19.8722 -7.95614 -56.4845
LeftForeArm  176.759 -68.7496 -155.837
LeftHand  -0.846529 -6.50145 8.58758
RightShoulder  0.700931 -0.757584 19.2129
RightArm  -1.74646 -35.4801 53.646
RightForeArm  34.2536 67.808 24.7376
RightHand  -0.349689 7.63779 -3.47609
LeftUpLeg  2.34905 1.23715 2.80878
LeftLeg  -4.34272 12.8524 -1.46214
LeftFoot  2.23838 0.358493 -3.12694
LeftToes  4.7643e-008 1.47522e-008 1.32869e-009
